<svg width="626" height="76" fill="none" xmlns="http://www.w3.org/2000/svg"><path d="M585.55 19.94c-.46 0-.83.37-.83.83v7.8c0 .46.37.83.83.83h34.12c.9 0 1.63.73 1.63 1.63v13.59c0 .9-.73 1.63-1.63 1.63h-34.12c-.46 0-.83.37-.83.83v7.8c0 .46.37.83.83.83h38.76c.9 0 1.63.73 1.63 1.63v16.68c0 .9-.73 1.63-1.63 1.63H564.3c-.92 0-1.66-.74-1.66-1.66V1.68c0-.92.74-1.66 1.66-1.66h60.01c.9 0 1.63.73 1.63 1.63v16.68c0 .9-.73 1.63-1.63 1.63h-38.76v-.02ZM554.21 0h-67.97c-.9 0-1.63.73-1.63 1.63v16.68c0 .9.73 1.63 1.63 1.63h22.83v54.07c0 .9.73 1.63 1.63 1.63h18.82c.9 0 1.63-.73 1.63-1.63V19.94h23.06c.9 0 1.63-.73 1.63-1.63V1.63c0-.9-.73-1.63-1.63-1.63Zm-70.6 75.63h-25.18c-1.13 0-2.2-.51-2.92-1.39l-18.58-22.88h-6.19c-.46 0-.83.37-.83.83V74c0 .9-.73 1.63-1.63 1.63h-18.79c-.92 0-1.66-.74-1.66-1.66V1.66c0-.92.74-1.66 1.66-1.66h52.13c8.6 0 15.57 6.97 15.57 15.57V35.8c0 7.3-5.03 13.41-11.81 15.09l18.92 23.29c.48.58.06 1.45-.69 1.45Zm-52.86-43.22h23.85c.46 0 .83-.37.83-.83V20.76c0-.46-.37-.83-.83-.83h-23.85c-.46 0-.83.37-.83.83v10.82c0 .46.37.83.83.83Zm-155.74-2.92c-.46 0-.83-.37-.83-.83V19.2c0-.46.37-.83.83-.83h25.06c.46 0 .83.37.83.83v3.04c0 .93.76 1.69 1.69 1.69h17.12c.93 0 1.69-.76 1.69-1.69v-6.67c0-8.6-6.97-15.57-15.57-15.57h-36.58c-8.6 0-15.57 6.97-15.57 15.57v14.95c0 8.63 6.99 15.62 15.62 15.62h31.75c.46 0 .83.37.83.83v9.38c0 .46-.37.83-.83.83h-26.04c-.46 0-.83-.37-.83-.83v-3c0-.93-.76-1.69-1.69-1.69h-17.12c-.93 0-1.69.76-1.69 1.69v6.73c0 8.6 6.97 15.57 15.57 15.57h37.4c8.6 0 15.57-6.97 15.57-15.57V44.74c0-8.42-6.82-15.24-15.24-15.24h-31.97v-.01ZM400.6 15.57v44.5c0 8.6-6.97 15.57-15.57 15.57h-39.74c-8.6 0-15.57-6.97-15.57-15.57v-44.5c0-8.6 6.97-15.57 15.57-15.57h39.74c8.6 0 15.57 6.97 15.57 15.57Zm-17.64 23.76c-2.79-.41-8.36-1.07-12.28-1.52 3.92-.45 9.49-1.1 12.27-1.52 4.18-.62 7.7-4.07 7.36-8.39a6.275 6.275 0 0 0-1.94-4.23 7.523 7.523 0 0 0-5.44-2.18l-1.48.02.02-1.48c.03-2.08-.8-4.05-2.18-5.44a6.211 6.211 0 0 0-4.23-1.94c-4.32-.34-7.77 3.18-8.39 7.36-.41 2.79-1.07 8.36-1.52 12.28-.45-3.92-1.1-9.49-1.52-12.27-.62-4.18-4.07-7.7-8.39-7.36-1.64.09-3.14.79-4.23 1.94a7.523 7.523 0 0 0-2.18 5.44l.02 1.48-1.48-.02c-2.08-.03-4.05.8-5.44 2.18a6.211 6.211 0 0 0-1.94 4.23c-.34 4.32 3.18 7.77 7.36 8.39 2.79.41 8.36 1.07 12.28 1.52-3.91.45-9.49 1.1-12.27 1.52-4.18.62-7.7 4.07-7.36 8.39.09 1.64.79 3.14 1.94 4.23a7.523 7.523 0 0 0 5.44 2.18l1.48-.02-.02 1.48c-.03 2.08.8 4.05 2.18 5.44a6.211 6.211 0 0 0 4.23 1.94c4.32.34 7.77-3.18 8.39-7.36.41-2.79 1.07-8.36 1.52-12.28.45 3.92 1.1 9.49 1.52 12.27.62 4.18 4.07 7.7 8.39 7.36 1.64-.09 3.14-.79 4.23-1.94a7.523 7.523 0 0 0 2.18-5.44l-.02-1.48 1.48.02c2.08.03 4.05-.8 5.44-2.18a6.211 6.211 0 0 0 1.94-4.23c.35-4.32-3.18-7.77-7.36-8.39Z" fill="url(#a)"/><path d="m191.09 1.4-59.03 72.96c-.41.51-.05 1.28.61 1.28h24.99c1.08 0 2.11-.49 2.79-1.33l8.63-10.67h29.8v9.94c0 1.14.92 2.06 2.06 2.06h18.14c1.14 0 2.06-.92 2.06-2.06V1.78c0-.98-.8-1.78-1.78-1.78h-25.33c-1.14 0-2.22.52-2.94 1.4Zm-6.75 43.37 13.37-16.53c.39-.48 1.17-.21 1.17.41v16.11h-14.54v.01Zm-1.98-43.15-58.51 72.05a5.25 5.25 0 0 1-3.12 1.86c-.18.06-.37.1-.56.1h-18.85c-.96 0-1.74-.78-1.74-1.74V1.91c0-.96.78-1.74 1.74-1.74h18.84c.96 0 1.74.78 1.74 1.74V38.6c0 .46.58.67.87.31L153.1 1.56c.71-.88 1.78-1.39 2.92-1.39h25.64c.75-.01 1.17.87.7 1.45ZM92.4 1.58V74c0 .9-.73 1.63-1.63 1.63H70.18c-.9 0-1.63-.73-1.63-1.63V31.69c0-1.31.45-2.59 1.28-3.61L91.57 1.29c.29-.33.83-.14.83.29Zm-9.63.04L24.26 73.67a5.25 5.25 0 0 1-3.12 1.86c-.18.06-.37.1-.56.1H1.74c-.96 0-1.74-.78-1.74-1.74V1.91C0 .95.78.17 1.74.17h18.84c.96 0 1.74.78 1.74 1.74V38.6c0 .46.58.67.87.31L53.52 1.56C54.23.68 55.3.17 56.44.17h25.64c.75-.01 1.16.87.69 1.45Z" fill="url(#b)"/><defs><linearGradient id="a" x1="439.813" y1="75.635" x2="439.813" y2=".001" gradientUnits="userSpaceOnUse"><stop stop-color="#3444AE"/><stop offset="1" stop-color="#00ADF6"/></linearGradient><linearGradient id="b" x1="110.567" y1="75.635" x2="110.567" y2=".001" gradientUnits="userSpaceOnUse"><stop stop-color="#3444AE"/><stop offset="1" stop-color="#00ADF6"/></linearGradient></defs></svg>